<?xml version="1.0" encoding="utf-8"?>
<!-- Generator: Adobe Illustrator 25.2.1, SVG Export Plug-In . SVG Version: 6.00 Build 0)  -->
<svg version="1.1" id="Ebene_1" xmlns="http://www.w3.org/2000/svg" xmlns:xlink="http://www.w3.org/1999/xlink" x="0px" y="0px"
	 viewBox="0 0 395.4 63.8" style="enable-background:new 0 0 395.4 63.8;" xml:space="preserve">
<style type="text/css">
	.st0{fill:#008FD4;}
	.st1{fill:#FFFFFF;}
	.st2{fill:#181715;}
</style>
<rect y="0" class="st0" width="170.1" height="63.8"/>
<polygon class="st1" points="27.7,23 31,23 35.7,34.3 39.9,23.4 40.6,23.4 45,34.3 49.6,23 52.7,23 45.3,40.8 44.5,40.8 40.2,29.7 
	35.9,40.8 35.2,40.8 "/>
<polygon class="st1" points="62.8,23 66.1,23 70.7,34.3 75,23.4 75.7,23.4 80,34.3 84.7,23 87.8,23 80.4,40.8 79.6,40.8 75.3,29.7 
	71,40.8 70.2,40.8 "/>
<polygon class="st1" points="99.2,26 99.2,23.1 114.5,23.1 114.5,26 108.4,26 108.4,40.7 105.2,40.7 105.2,26 "/>
<polygon class="st1" points="128.2,23.1 140,23.1 140,26 131.3,26 131.3,31.1 138.6,31.1 138.6,33.8 131.3,33.8 131.3,40.7 
	128.2,40.7 "/>
<rect x="57.3" y="15.9" class="st1" width="1.1" height="31.9"/>
<rect x="92.3" y="15.9" class="st1" width="1.1" height="31.9"/>
<rect x="120.3" y="15.9" class="st1" width="1.1" height="31.9"/>
<g>
	<path class="st2" d="M392.7,44.8c1.7,0,2.6-1,2.6-2.1c0-1.3-1.1-1.8-2.1-2.1c-0.8-0.3-1.6-0.6-1.6-1.2c0-0.5,0.4-1,1.3-1
		c0.6,0,1.1,0.3,1.6,0.6l0.6-0.8c-0.5-0.4-1.3-0.8-2.2-0.8c-1.5,0-2.4,0.9-2.4,2c0,1.2,1.1,1.7,2.1,2c0.8,0.3,1.6,0.6,1.6,1.3
		c0,0.6-0.5,1.1-1.4,1.1c-0.8,0-1.5-0.3-2.1-0.8l-0.6,0.8C390.8,44.3,391.7,44.8,392.7,44.8 M385.6,43.8c-1.2,0-1.9-1-1.9-2.7
		c0-1.6,0.9-2.7,2-2.7c0.6,0,1.1,0.2,1.7,0.7v3.7C386.8,43.4,386.3,43.8,385.6,43.8 M385.4,44.8c0.8,0,1.6-0.5,2.1-1h0l0.1,0.8h1
		V34.3h-1.2V37l0.1,1.2c-0.6-0.5-1.2-0.8-2-0.8c-1.6,0-3.1,1.4-3.1,3.7C382.4,43.4,383.6,44.8,385.4,44.8 M375.1,44.6h1.2v-5.1
		c0.7-0.7,1.2-1.1,1.9-1.1c0.9,0,1.3,0.6,1.3,1.9v4.3h1.2v-4.5c0-1.8-0.7-2.8-2.1-2.8c-1,0-1.7,0.5-2.4,1.2h0l-0.1-1h-1V44.6z
		 M370,43.8c-1.2,0-2-1.1-2-2.7c0-1.6,0.8-2.7,2-2.7c1.2,0,2,1.1,2,2.7C372.1,42.7,371.2,43.8,370,43.8 M370,44.8
		c1.7,0,3.3-1.3,3.3-3.7c0-2.4-1.5-3.7-3.3-3.7c-1.7,0-3.3,1.3-3.3,3.7C366.8,43.4,368.3,44.8,370,44.8 M363.4,44.6h1.2v-6.1h1.5v-1
		h-1.5v-1.1c0-0.9,0.3-1.4,1-1.4c0.3,0,0.5,0.1,0.8,0.2l0.3-0.9c-0.3-0.1-0.7-0.2-1.2-0.2c-1.4,0-2.1,0.9-2.1,2.3v1.1l-1,0.1v0.9h1
		V44.6z M356.7,40.5c0.1-1.4,1-2.2,2-2.2c1.1,0,1.7,0.8,1.7,2.2H356.7z M358.9,44.8c1,0,1.7-0.3,2.3-0.7l-0.4-0.8
		c-0.5,0.3-1.1,0.6-1.8,0.6c-1.4,0-2.3-1-2.4-2.5h4.8c0-0.2,0-0.4,0-0.7c0-2-1-3.3-2.8-3.3c-1.6,0-3.2,1.4-3.2,3.7
		S357,44.8,358.9,44.8 M353.2,36.1c0.5,0,0.8-0.3,0.8-0.8c0-0.5-0.4-0.8-0.8-0.8c-0.5,0-0.8,0.3-0.8,0.8
		C352.4,35.8,352.8,36.1,353.2,36.1 M352.6,44.6h1.2v-7h-1.2V44.6z M347.9,47c-1.3,0-2-0.5-2-1.2c0-0.4,0.2-0.8,0.7-1.2
		c0.3,0.1,0.6,0.1,0.9,0.1h1.2c0.9,0,1.4,0.2,1.4,0.9C350.2,46.3,349.3,47,347.9,47 M347.7,41.6c-0.8,0-1.5-0.7-1.5-1.7
		c0-1,0.7-1.6,1.5-1.6s1.5,0.6,1.5,1.6C349.2,40.9,348.6,41.6,347.7,41.6 M347.7,47.8c2.2,0,3.6-1.1,3.6-2.4c0-1.2-0.8-1.7-2.5-1.7
		h-1.4c-1,0-1.2-0.3-1.2-0.8c0-0.4,0.2-0.6,0.4-0.8c0.3,0.2,0.7,0.2,1.1,0.2c1.4,0,2.6-0.9,2.6-2.5c0-0.6-0.2-1.1-0.6-1.5h1.4v-0.9
		h-2.4c-0.3-0.1-0.6-0.2-1-0.2c-1.4,0-2.7,1-2.7,2.5c0,0.8,0.4,1.5,0.9,1.9v0.1c-0.4,0.2-0.8,0.7-0.8,1.3c0,0.6,0.3,0.9,0.6,1.1v0.1
		c-0.6,0.4-1,1-1,1.6C344.8,47.2,346,47.8,347.7,47.8 M340.4,43.8c-1.2,0-2-1.1-2-2.7c0-1.6,0.8-2.7,2-2.7c1.2,0,2,1.1,2,2.7
		C342.4,42.7,341.6,43.8,340.4,43.8 M340.4,44.8c1.7,0,3.3-1.3,3.3-3.7c0-2.4-1.5-3.7-3.3-3.7c-1.7,0-3.3,1.3-3.3,3.7
		C337.1,43.4,338.7,44.8,340.4,44.8 M335.4,44.8c0.3,0,0.5,0,0.7-0.1l-0.2-0.9c-0.1,0-0.2,0-0.3,0c-0.2,0-0.3-0.1-0.3-0.5v-9h-1.2
		v8.9C334.2,44.2,334.5,44.8,335.4,44.8 M329.1,43.8c-1.2,0-2-1.1-2-2.7c0-1.6,0.8-2.7,2-2.7c1.2,0,2,1.1,2,2.7
		C331.2,42.7,330.4,43.8,329.1,43.8 M329.1,44.8c1.7,0,3.3-1.3,3.3-3.7c0-2.4-1.5-3.7-3.3-3.7c-1.7,0-3.3,1.3-3.3,3.7
		C325.9,43.4,327.4,44.8,329.1,44.8 M318.5,44.6h1.2v-5.1c0.7-0.7,1.2-1.1,1.9-1.1c0.9,0,1.3,0.6,1.3,1.9v4.3h1.2v-4.5
		c0-1.8-0.7-2.8-2.1-2.8c-1,0-1.7,0.5-2.4,1.2h0l-0.1-1h-1V44.6z M310.8,44.6h1.2v-5.1c0.7-0.7,1.2-1.1,1.9-1.1
		c0.9,0,1.3,0.6,1.3,1.9v4.3h1.2v-4.5c0-1.8-0.7-2.8-2.1-2.8c-1,0-1.7,0.5-2.4,1.2l0-1.4v-2.8h-1.2V44.6z M307.1,44.8
		c0.8,0,1.6-0.3,2.3-0.9l-0.5-0.8c-0.4,0.4-1,0.7-1.7,0.7c-1.3,0-2.2-1.1-2.2-2.7c0-1.6,0.9-2.7,2.2-2.7c0.6,0,1,0.3,1.4,0.6
		l0.6-0.8c-0.5-0.4-1.1-0.8-2.1-0.8c-1.8,0-3.4,1.3-3.4,3.7C303.8,43.4,305.2,44.8,307.1,44.8 M297.7,40.5c0.1-1.4,1-2.2,2-2.2
		c1.1,0,1.7,0.8,1.7,2.2H297.7z M299.9,44.8c1,0,1.7-0.3,2.3-0.7l-0.4-0.8c-0.5,0.3-1.1,0.6-1.8,0.6c-1.4,0-2.3-1-2.4-2.5h4.8
		c0-0.2,0-0.4,0-0.7c0-2-1-3.3-2.8-3.3c-1.6,0-3.2,1.4-3.2,3.7S298,44.8,299.9,44.8 M292.6,44.6h1.2v-8.5h2.9v-1h-7v1h2.9V44.6z
		 M282.5,43.8c-1.2,0-1.9-1-1.9-2.7c0-1.6,0.9-2.7,2-2.7c0.6,0,1.1,0.2,1.7,0.7v3.7C283.7,43.4,283.2,43.8,282.5,43.8 M282.3,44.8
		c0.8,0,1.6-0.5,2.1-1h0l0.1,0.8h1V34.3h-1.2V37l0.1,1.2c-0.6-0.5-1.2-0.8-2-0.8c-1.6,0-3.1,1.4-3.1,3.7
		C279.3,43.4,280.5,44.8,282.3,44.8 M272.1,44.6h1.2v-5.1c0.7-0.7,1.2-1.1,1.9-1.1c0.9,0,1.3,0.6,1.3,1.9v4.3h1.2v-4.5
		c0-1.8-0.7-2.8-2.1-2.8c-1,0-1.7,0.5-2.4,1.2h0l-0.1-1h-1V44.6z M266.5,44.8c1,0,1.7-0.5,2.3-1.3h0l0.1,1.1h1v-7h-1.2v5
		c-0.7,0.8-1.2,1.2-1.9,1.2c-0.9,0-1.3-0.6-1.3-1.9v-4.3h-1.2V42C264.3,43.8,265,44.8,266.5,44.8 M256.7,41.4h3.3v-0.9h-3.3V41.4z
		 M253.1,44.8c1.7,0,2.6-1,2.6-2.1c0-1.3-1.1-1.8-2.1-2.1c-0.8-0.3-1.6-0.6-1.6-1.2c0-0.5,0.4-1,1.3-1c0.6,0,1.1,0.3,1.6,0.6
		l0.6-0.8c-0.5-0.4-1.3-0.8-2.2-0.8c-1.5,0-2.4,0.9-2.4,2c0,1.2,1.1,1.7,2.1,2c0.8,0.3,1.6,0.6,1.6,1.3c0,0.6-0.5,1.1-1.4,1.1
		c-0.8,0-1.5-0.3-2.1-0.8l-0.6,0.8C251.1,44.3,252.1,44.8,253.1,44.8 M246.4,47c-1.3,0-2-0.5-2-1.2c0-0.4,0.2-0.8,0.7-1.2
		c0.3,0.1,0.6,0.1,0.9,0.1h1.2c0.9,0,1.4,0.2,1.4,0.9C248.6,46.3,247.8,47,246.4,47 M246.2,41.6c-0.8,0-1.5-0.7-1.5-1.7
		c0-1,0.7-1.6,1.5-1.6s1.5,0.6,1.5,1.6C247.7,40.9,247.1,41.6,246.2,41.6 M246.2,47.8c2.2,0,3.6-1.1,3.6-2.4c0-1.2-0.8-1.7-2.5-1.7
		H246c-1,0-1.2-0.3-1.2-0.8c0-0.4,0.2-0.6,0.4-0.8c0.3,0.2,0.7,0.2,1.1,0.2c1.4,0,2.6-0.9,2.6-2.5c0-0.6-0.2-1.1-0.6-1.5h1.4v-0.9
		h-2.4c-0.3-0.1-0.6-0.2-1-0.2c-1.4,0-2.7,1-2.7,2.5c0,0.8,0.4,1.5,0.9,1.9v0.1c-0.4,0.2-0.8,0.7-0.8,1.3c0,0.6,0.3,0.9,0.6,1.1v0.1
		c-0.6,0.4-1,1-1,1.6C243.3,47.2,244.5,47.8,246.2,47.8 M236.1,44.6h1.2v-5.1c0.7-0.7,1.2-1.1,1.9-1.1c0.9,0,1.3,0.6,1.3,1.9v4.3
		h1.2v-4.5c0-1.8-0.7-2.8-2.1-2.8c-1,0-1.7,0.5-2.4,1.2h0l-0.1-1h-1V44.6z M230.4,44.8c1,0,1.7-0.5,2.3-1.3h0l0.1,1.1h1v-7h-1.2v5
		c-0.7,0.8-1.2,1.2-1.9,1.2c-0.9,0-1.3-0.6-1.3-1.9v-4.3h-1.2V42C228.3,43.8,229,44.8,230.4,44.8 M220.6,44.6h1.2v-5.1
		c0.7-0.7,1.2-1.1,1.9-1.1c0.9,0,1.3,0.6,1.3,1.9v4.3h1.2v-4.5c0-1.8-0.7-2.8-2.1-2.8c-1,0-1.7,0.5-2.4,1.2l0-1.4v-2.8h-1.2V44.6z
		 M216.9,44.8c0.8,0,1.6-0.3,2.3-0.9l-0.5-0.8c-0.4,0.4-1,0.7-1.7,0.7c-1.3,0-2.2-1.1-2.2-2.7c0-1.6,0.9-2.7,2.2-2.7
		c0.6,0,1,0.3,1.4,0.6l0.6-0.8c-0.5-0.4-1.1-0.8-2.1-0.8c-1.8,0-3.4,1.3-3.4,3.7C213.6,43.4,215,44.8,216.9,44.8 M209.9,44.8
		c1.7,0,2.6-1,2.6-2.1c0-1.3-1.1-1.8-2.1-2.1c-0.8-0.3-1.6-0.6-1.6-1.2c0-0.5,0.4-1,1.3-1c0.6,0,1.1,0.3,1.6,0.6l0.6-0.8
		c-0.5-0.4-1.3-0.8-2.2-0.8c-1.5,0-2.4,0.9-2.4,2c0,1.2,1.1,1.7,2.1,2c0.8,0.3,1.6,0.6,1.6,1.3c0,0.6-0.5,1.1-1.4,1.1
		c-0.8,0-1.5-0.3-2.1-0.8l-0.6,0.8C207.9,44.3,208.9,44.8,209.9,44.8 M202.8,44.6h1.2v-4.5c0.5-1.2,1.2-1.6,1.8-1.6
		c0.3,0,0.4,0,0.7,0.1l0.2-1c-0.2-0.1-0.4-0.1-0.8-0.1c-0.8,0-1.5,0.6-2,1.4h0l-0.1-1.3h-1V44.6z M197.8,43.8c-1.2,0-2-1.1-2-2.7
		c0-1.6,0.8-2.7,2-2.7c1.2,0,2,1.1,2,2.7C199.8,42.7,199,43.8,197.8,43.8 M197.8,44.8c1.7,0,3.3-1.3,3.3-3.7c0-2.4-1.5-3.7-3.3-3.7
		c-1.7,0-3.3,1.3-3.3,3.7C194.5,43.4,196.1,44.8,197.8,44.8 M188.4,44.6h1.2v-4.3h3.6v-1h-3.6v-3.2h4.3v-1h-5.5V44.6z"/>
	<path class="st2" d="M321.7,31.1c1.2-0.5,1.9-1.5,1.9-2.7c0-0.9-0.4-1.4-1-1.4c-0.5,0-0.9,0.3-0.9,0.8c0,0.5,0.4,0.8,0.9,0.8
		c0,0,0.1,0,0.1,0c0,0.8-0.5,1.4-1.3,1.8L321.7,31.1z M317.1,25.4h3.3v-0.9h-3.3V25.4z M313.4,28.8c1.7,0,2.6-1,2.6-2.1
		c0-1.3-1.1-1.8-2.1-2.1c-0.8-0.3-1.6-0.6-1.6-1.2c0-0.5,0.4-1,1.3-1c0.6,0,1.1,0.3,1.6,0.6l0.6-0.8c-0.5-0.4-1.3-0.8-2.2-0.8
		c-1.5,0-2.4,0.9-2.4,2c0,1.2,1.1,1.7,2.1,2c0.8,0.3,1.6,0.6,1.6,1.3c0,0.6-0.5,1.1-1.4,1.1c-0.8,0-1.5-0.3-2.1-0.8l-0.6,0.8
		C311.4,28.3,312.4,28.8,313.4,28.8 M303.2,28.6h1.2v-6.1h2.5v3.9c0,1.4,0.5,2.3,2,2.3c0.4,0,0.9-0.1,1.3-0.3l-0.2-0.9
		c-0.2,0.1-0.6,0.2-0.8,0.2c-0.8,0-1.1-0.5-1.1-1.4v-3.9h1.9v-1h-1.9v-2h-1l-0.1,2h-2.6v-1.1c0-0.9,0.3-1.4,1-1.4
		c0.3,0,0.5,0.1,0.8,0.2l0.3-0.9c-0.3-0.1-0.7-0.2-1.2-0.2c-1.4,0-2.1,0.9-2.1,2.3v1.1l-1,0.1v0.9h1V28.6z M297.7,27.8
		c-0.7,0-1.2-0.3-1.2-1.1c0-0.9,0.8-1.5,3.2-1.8v2C299,27.5,298.4,27.8,297.7,27.8 M297.4,28.8c0.9,0,1.7-0.5,2.3-1h0l0.1,0.8h1
		v-4.3c0-1.8-0.7-2.9-2.5-2.9c-1.1,0-2.1,0.5-2.8,0.9l0.5,0.8c0.6-0.4,1.3-0.8,2.1-0.8c1.2,0,1.5,0.9,1.5,1.8
		c-3,0.3-4.3,1.1-4.3,2.6C295.3,28,296.2,28.8,297.4,28.8 M288,28.6h1.2v-5.1c0.7-0.7,1.2-1.1,1.9-1.1c0.9,0,1.3,0.6,1.3,1.9v4.3
		h1.2v-4.5c0-1.8-0.7-2.8-2.1-2.8c-1,0-1.7,0.5-2.4,1.2l0-1.4v-2.8H288V28.6z M284.3,28.8c0.8,0,1.6-0.3,2.3-0.9l-0.5-0.8
		c-0.4,0.4-1,0.7-1.7,0.7c-1.3,0-2.2-1.1-2.2-2.7c0-1.6,0.9-2.7,2.2-2.7c0.6,0,1,0.3,1.4,0.6l0.6-0.8c-0.5-0.4-1.1-0.8-2.1-0.8
		c-1.8,0-3.4,1.3-3.4,3.7C281,27.4,282.5,28.8,284.3,28.8 M277.3,28.8c1.7,0,2.6-1,2.6-2.1c0-1.3-1.1-1.8-2.1-2.1
		c-0.8-0.3-1.6-0.6-1.6-1.2c0-0.5,0.4-1,1.3-1c0.6,0,1.1,0.3,1.6,0.6l0.6-0.8c-0.5-0.4-1.3-0.8-2.2-0.8c-1.5,0-2.4,0.9-2.4,2
		c0,1.2,1.1,1.7,2.1,2c0.8,0.3,1.6,0.6,1.6,1.3c0,0.6-0.5,1.1-1.4,1.1c-0.8,0-1.5-0.3-2.1-0.8l-0.6,0.8
		C275.3,28.3,276.3,28.8,277.3,28.8 M267.6,28.6h1.2v-5.1c0.7-0.7,1.2-1.1,1.9-1.1c0.9,0,1.3,0.6,1.3,1.9v4.3h1.2v-4.5
		c0-1.8-0.7-2.8-2.1-2.8c-1,0-1.7,0.5-2.4,1.2h0l-0.1-1h-1V28.6z M261.1,24.5c0.1-1.4,1-2.2,2-2.2c1.1,0,1.7,0.8,1.7,2.2H261.1z
		 M263.3,28.8c1,0,1.7-0.3,2.3-0.7l-0.4-0.8c-0.5,0.3-1.1,0.6-1.8,0.6c-1.3,0-2.3-1-2.4-2.5h4.8c0-0.2,0-0.4,0-0.7
		c0-2-1-3.3-2.8-3.3c-1.6,0-3.2,1.4-3.2,3.7S261.4,28.8,263.3,28.8 M256.2,28.8c1.7,0,2.6-1,2.6-2.1c0-1.3-1.1-1.8-2.1-2.1
		c-0.8-0.3-1.6-0.6-1.6-1.2c0-0.5,0.4-1,1.3-1c0.6,0,1.1,0.3,1.6,0.6l0.6-0.8c-0.5-0.4-1.3-0.8-2.2-0.8c-1.5,0-2.4,0.9-2.4,2
		c0,1.2,1.1,1.7,2.1,2c0.8,0.3,1.6,0.6,1.6,1.3c0,0.6-0.5,1.1-1.4,1.1c-0.8,0-1.5-0.3-2.1-0.8l-0.6,0.8
		C254.2,28.3,255.2,28.8,256.2,28.8 M250,28.8c1.7,0,2.6-1,2.6-2.1c0-1.3-1.1-1.8-2.1-2.1c-0.8-0.3-1.6-0.6-1.6-1.2
		c0-0.5,0.4-1,1.3-1c0.6,0,1.1,0.3,1.6,0.6l0.6-0.8c-0.5-0.4-1.3-0.8-2.2-0.8c-1.5,0-2.4,0.9-2.4,2c0,1.2,1.1,1.7,2.1,2
		c0.8,0.3,1.6,0.6,1.6,1.3c0,0.6-0.5,1.1-1.4,1.1c-0.8,0-1.5-0.3-2.1-0.8l-0.6,0.8C248,28.3,249,28.8,250,28.8 M245.3,20.1
		c0.5,0,0.8-0.3,0.8-0.8c0-0.5-0.4-0.8-0.8-0.8c-0.5,0-0.8,0.3-0.8,0.8C244.5,19.8,244.9,20.1,245.3,20.1 M244.7,28.6h1.2v-7h-1.2
		V28.6z M234.4,28.6h1.4l1.4-5.7c0.2-0.7,0.3-1.4,0.5-2.2h0.1c0.1,0.7,0.3,1.4,0.5,2.2l1.4,5.7h1.4l2-9.5H242l-1,5.2
		c-0.2,1-0.4,2-0.5,3.1h-0.1c-0.2-1-0.5-2.1-0.7-3.1l-1.3-5.2h-1.1l-1.3,5.2c-0.2,1-0.4,2-0.7,3.1h-0.1c-0.2-1-0.4-2-0.6-3.1l-1-5.2
		h-1.2L234.4,28.6z M225.3,28.6h1.2v-4.5c0.5-1.2,1.2-1.6,1.8-1.6c0.3,0,0.4,0,0.7,0.1l0.2-1c-0.2-0.1-0.4-0.1-0.8-0.1
		c-0.8,0-1.5,0.6-2,1.4h0l-0.1-1.3h-1V28.6z M218.8,24.5c0.1-1.4,1-2.2,2-2.2c1.1,0,1.7,0.8,1.7,2.2H218.8z M221,28.8
		c1,0,1.7-0.3,2.3-0.7l-0.4-0.8c-0.5,0.3-1.1,0.6-1.8,0.6c-1.3,0-2.3-1-2.4-2.5h4.8c0-0.2,0-0.4,0-0.7c0-2-1-3.3-2.8-3.3
		c-1.6,0-3.2,1.4-3.2,3.7S219.2,28.8,221,28.8 M210.3,28.6h1.2v-5.1c0.7-0.7,1.2-1.1,1.9-1.1c0.9,0,1.3,0.6,1.3,1.9v4.3h1.2v-4.5
		c0-1.8-0.7-2.8-2.1-2.8c-1,0-1.7,0.5-2.4,1.2h0l-0.1-1h-1V28.6z M203.8,24.5c0.1-1.4,1-2.2,2-2.2c1.1,0,1.7,0.8,1.7,2.2H203.8z
		 M206,28.8c1,0,1.7-0.3,2.3-0.7l-0.4-0.8c-0.5,0.3-1.1,0.6-1.8,0.6c-1.3,0-2.3-1-2.3-2.5h4.8c0-0.2,0-0.4,0-0.7c0-2-1-3.3-2.8-3.3
		c-1.6,0-3.2,1.4-3.2,3.7S204.1,28.8,206,28.8 M200.3,20.1c0.5,0,0.8-0.3,0.8-0.8c0-0.5-0.4-0.8-0.8-0.8c-0.5,0-0.8,0.3-0.8,0.8
		C199.5,19.8,199.9,20.1,200.3,20.1 M199.7,28.6h1.2v-7h-1.2V28.6z M189.4,28.6h1.4l1.4-5.7c0.2-0.7,0.3-1.4,0.5-2.2h0.1
		c0.1,0.7,0.3,1.4,0.5,2.2l1.4,5.7h1.4l2-9.5H197l-1,5.2c-0.2,1-0.4,2-0.5,3.1h-0.1c-0.2-1-0.5-2.1-0.7-3.1l-1.3-5.2h-1.1l-1.3,5.2
		c-0.2,1-0.4,2-0.7,3.1h-0.1c-0.2-1-0.4-2-0.6-3.1l-1-5.2h-1.2L189.4,28.6z"/>
</g>
</svg>
